<?xml version="1.0" encoding="UTF-8"?>
<!DOCTYPE svg PUBLIC "-//W3C//DTD SVG 1.1//EN" "http://www.w3.org/Graphics/SVG/1.1/DTD/svg11.dtd">
<!-- Creator: CorelDRAW 2020 (64-Bit) -->
<svg xmlns="http://www.w3.org/2000/svg" xml:space="preserve" width="4.49999in" height="0.833331in" version="1.1" style="shape-rendering:geometricPrecision; text-rendering:geometricPrecision; image-rendering:optimizeQuality; fill-rule:evenodd; clip-rule:evenodd"
viewBox="0 0 4499.99 833.33"
 xmlns:xlink="http://www.w3.org/1999/xlink"
 xmlns:xodm="http://www.corel.com/coreldraw/odm/2003">
 <defs>
  <style type="text/css">
   <![CDATA[
    .fil0 {fill:white}
    .fil1 {fill:#050159;fill-rule:nonzero}
    .fil4 {fill:#F2BF05;fill-rule:nonzero}
    .fil2 {fill:white;fill-rule:nonzero}
    .fil3 {fill:white;fill-rule:nonzero;fill-opacity:0.501961}
   ]]>
  </style>
 </defs>
 <g id="Layer_x0020_1">
  <metadata id="CorelCorpID_0Corel-Layer"/>
  <g id="_2546665822240">
   <rect class="fil0" x="101.79" y="32.37" width="557.77" height="537.61"/>
   <polygon class="fil1" points="551.7,175.81 551.7,86.43 210.31,86.43 210.31,175.81 330.61,175.81 330.61,533.99 431.41,533.99 431.41,175.81 "/>
   <polygon class="fil2" points="1391.62,77.4 1292.17,77.4 1216.9,397.28 1140.29,77.4 1017.31,77.4 939.36,397.28 863.42,77.4 763.96,77.4 874.17,524.96 1002.53,524.96 1078.46,184.92 1153.73,524.96 1282.08,524.96 "/>
   <path id="1" class="fil2" d="M1681.26 395.26l0 -68.55c0,-71.23 -23.52,-135.74 -132.39,-135.74 -108.87,0 -140.45,60.48 -140.45,131.04l0 76.61c0,80.64 40.32,133.06 146.5,133.06 45.7,0 93.41,-10.08 122.98,-20.83l-14.11 -72.57c-28.89,8.74 -69.22,14.11 -99.46,14.11 -44.35,0 -59.14,-10.08 -59.14,-47.71l0 -9.41 176.07 0zm-91.39 -72.58l-84.67 0 0 -14.11c0,-22.85 10.75,-41.67 44.35,-41.67 33.6,0 40.32,18.81 40.32,41.67l0 14.11z"/>
   <path id="2" class="fil2" d="M2042.13 393.92l0 -84.67c0,-73.25 -28.22,-118.27 -100.8,-118.27 -35.62,0 -66.53,8.06 -92.74,18.14l0 -158.59 -96.77 13.44 0 456.97c45.02,7.39 98.11,10.75 133.06,10.75 135.07,0 157.25,-59.81 157.25,-137.76zm-193.54 -100.8c18.15,-9.41 41,-18.15 61.83,-18.15 25.54,0 34.94,13.44 34.94,34.94l0 84.67c0,30.91 -8.74,53.09 -57.12,53.09 -13.44,0 -25.54,0 -39.65,-1.35l0 -153.22z"/>
   <polygon id="3" class="fil2" points="2599.9,524.96 2599.9,77.4 2499.09,77.4 2499.09,255.48 2354.61,255.48 2354.61,77.4 2253.81,77.4 2253.81,524.96 2354.61,524.96 2354.61,344.86 2499.09,344.86 2499.09,524.96 "/>
   <path id="4" class="fil2" d="M2818.3 531.68c116.26,0 147.84,-65.19 147.84,-132.39l0 -75.94c0,-67.2 -31.59,-132.39 -147.84,-132.39 -116.26,0 -147.84,65.19 -147.84,132.39l0 75.94c0,67.2 31.58,132.39 147.84,132.39zm0 -81.31c-34.94,0 -51.07,-17.47 -51.07,-48.38l0 -81.31c0,-30.91 16.13,-48.39 51.07,-48.39 34.94,0 51.07,17.47 51.07,48.39l0 81.31c0,30.91 -16.13,48.38 -51.07,48.38z"/>
   <path id="5" class="fil2" d="M3260.48 427.52c0,-65.19 -6.72,-85.35 -100.13,-106.18 -38.98,-8.74 -41.67,-11.43 -41.67,-31.59 0,-14.78 6.72,-22.18 34.94,-22.18 25.54,0 61.15,4.03 90.05,9.41l8.74 -75.26c-28.9,-7.39 -74.59,-10.75 -99.46,-10.75 -98.11,0 -124.99,28.89 -124.99,98.11 0,61.15 7.39,82.66 86.69,102.15 52.42,12.77 53.09,15.46 53.09,36.29 0,19.49 -4.7,27.55 -33.6,27.55 -36.29,0 -71.91,-6.72 -98.78,-14.78l-15.46 71.91c32.26,10.75 83.33,19.49 118.94,19.49 93.41,0 121.63,-36.96 121.63,-104.16z"/>
   <path id="6" class="fil2" d="M3508.46 519.58l-11.42 -73.25c-14.11,4.7 -29.57,6.05 -40.32,6.05 -12.09,0 -20.16,-4.7 -20.16,-18.14l0 -158.59 69.22 0 5.37 -77.96 -74.59 0 0 -92.06 -96.77 13.44 0 78.62 -44.35 0 0 77.96 44.35 0 0 172.04c0,60.48 36.29,84 98.79,84 22.17,0 48.38,-4.7 69.89,-12.1z"/>
   <path id="7" class="fil2" d="M3667.72 156.7l0 -102.81 -96.77 0 0 102.81 96.77 0zm0 368.26l0 -327.27 -96.77 0 0 327.27 96.77 0z"/>
   <path id="8" class="fil2" d="M4042.71 524.96l0 -229.16c0,-63.17 -19.49,-104.83 -75.27,-104.83 -37.63,0 -90.05,12.09 -130.37,31.58l-10.08 -24.87 -71.91 0 0 327.27 96.77 0 0 -216.39c20.83,-11.43 53.09,-23.52 70.56,-23.52 16.8,0 23.52,8.74 23.52,23.52l0 216.39 96.77 0z"/>
   <path id="9" class="fil2" d="M4106.55 337.47c0,38.98 13.44,67.2 41.67,84 -16.13,16.13 -28.22,33.6 -28.22,59.81 0,45.02 25.54,54.43 69.89,59.14 40.32,4.03 46.37,4.7 83.33,8.06 19.49,2.02 25.54,5.38 25.54,18.15 0,21.5 -20.16,23.52 -70.56,23.52 -28.89,0 -68.54,-4.03 -107.52,-13.44l-14.11 70.56c43.01,11.43 98.11,16.8 130.37,16.8 101.48,0 150.53,-24.19 150.53,-102.82 0,-56.45 -24.19,-75.26 -79.3,-79.97 -24.19,-2.02 -37.63,-3.36 -81.31,-8.06 -6.05,-0.67 -10.75,-6.05 -10.75,-13.44 0,-9.41 7.39,-14.11 14.11,-18.15l10.08 0c90.05,0 133.73,-41.67 133.73,-104.16l0 -39.65c-0.67,-14.78 -3.36,-29.57 -8.74,-42.33l32.93 -12.1 0 -45.7 -102.15 0c-16.13,-4.03 -34.27,-6.72 -55.78,-6.72 -96.1,0 -132.39,40.99 -133.73,106.85l0 39.65zm133.73 27.56c-31.59,0 -43.68,-10.08 -43.68,-32.26l0 -30.91c0,-21.51 11.43,-34.28 43.68,-34.28 32.26,0 43.68,12.77 43.68,34.28l0 30.91c0,22.18 -12.1,32.26 -43.68,32.26z"/>
   <path class="fil2" d="M132.18 763.95l0 -126.17 47.64 0c8.37,0 14.77,0.41 19.21,1.2 6.2,1.03 11.39,3 15.59,5.87 4.2,2.91 7.57,6.96 10.13,12.16 2.56,5.2 3.82,10.93 3.82,17.18 0,10.69 -3.41,19.77 -10.25,27.17 -6.81,7.43 -19.18,11.13 -37.04,11.13l-32.37 0 0 51.45 -16.74 0zm16.74 -66.26l32.6 0c10.81,0 18.44,-2 23,-6.02 4.52,-4.02 6.78,-9.66 6.78,-16.98 0,-5.26 -1.32,-9.78 -4,-13.54 -2.67,-3.76 -6.2,-6.26 -10.54,-7.46 -2.82,-0.73 -8.02,-1.11 -15.56,-1.11l-32.28 0 0 45.11z"/>
   <path id="1" class="fil2" d="M310.16 734.35l16.04 2.11c-2.5,9.31 -7.17,16.56 -13.98,21.7 -6.81,5.14 -15.51,7.72 -26.11,7.72 -13.33,0 -23.91,-4.11 -31.72,-12.33 -7.81,-8.19 -11.72,-19.74 -11.72,-34.57 0,-15.33 3.94,-27.25 11.83,-35.71 7.9,-8.49 18.15,-12.72 30.75,-12.72 12.19,0 22.14,4.14 29.87,12.45 7.72,8.31 11.6,20 11.6,35.07 0,0.91 -0.03,2.29 -0.09,4.11l-68.11 0c0.59,10.02 3.41,17.71 8.52,23.03 5.08,5.31 11.45,7.99 19.06,7.99 5.67,0 10.51,-1.5 14.51,-4.5 4.02,-2.99 7.2,-7.78 9.54,-14.36zm-50.75 -24.85l50.93 0c-0.67,-7.7 -2.64,-13.45 -5.84,-17.3 -4.91,-5.96 -11.31,-8.96 -19.15,-8.96 -7.11,0 -13.07,2.38 -17.91,7.14 -4.82,4.76 -7.49,11.13 -8.02,19.12z"/>
   <path id="2" class="fil2" d="M405.52 752.5c-5.76,4.9 -11.31,8.34 -16.62,10.37 -5.31,2.03 -11.02,3.02 -17.12,3.02 -10.04,0 -17.77,-2.44 -23.17,-7.34 -5.4,-4.87 -8.11,-11.13 -8.11,-18.74 0,-4.46 1.03,-8.55 3.06,-12.25 2.06,-3.7 4.73,-6.63 8.02,-8.87 3.32,-2.23 7.02,-3.94 11.16,-5.08 3.06,-0.79 7.67,-1.56 13.8,-2.32 12.51,-1.47 21.76,-3.26 27.67,-5.31 0.06,-2.11 0.09,-3.47 0.09,-4.02 0,-6.29 -1.47,-10.72 -4.41,-13.31 -3.96,-3.49 -9.87,-5.22 -17.68,-5.22 -7.31,0 -12.72,1.29 -16.18,3.85 -3.5,2.56 -6.05,7.08 -7.72,13.6l-15.15 -2.11c1.38,-6.49 3.64,-11.75 6.81,-15.74 3.17,-3.99 7.76,-7.05 13.74,-9.22 5.96,-2.15 12.93,-3.23 20.8,-3.23 7.81,0 14.19,0.91 19.09,2.76 4.87,1.85 8.48,4.14 10.78,6.93 2.29,2.79 3.91,6.31 4.85,10.57 0.5,2.65 0.76,7.4 0.76,14.24l0 20.56c0,14.36 0.32,23.44 0.97,27.28 0.62,3.85 1.91,7.52 3.79,11.04l-16.21 0c-1.56,-3.26 -2.56,-7.08 -3,-11.45zm-1.23 -34.36c-5.64,2.29 -14.1,4.23 -25.37,5.81 -6.41,0.91 -10.93,1.94 -13.57,3.08 -2.64,1.15 -4.67,2.82 -6.11,4.99 -1.44,2.2 -2.17,4.64 -2.17,7.34 0,4.08 1.56,7.52 4.7,10.25 3.14,2.73 7.72,4.11 13.74,4.11 5.96,0 11.28,-1.29 15.95,-3.91 4.64,-2.59 8.07,-6.14 10.25,-10.63 1.67,-3.5 2.5,-8.64 2.5,-15.42l0.09 -5.64z"/>
   <polygon id="3" class="fil2" points="443.85,763.95 443.85,637.78 459.35,637.78 459.35,709.65 496,672.5 516.04,672.5 481.15,706.47 519.56,763.95 500.47,763.95 470.1,717.22 459.35,727.68 459.35,763.95 "/>
   <path id="4" class="fil2" d="M582.79 763.95l0 -126.17 47.64 0c8.37,0 14.77,0.41 19.21,1.2 6.2,1.03 11.39,3 15.59,5.87 4.2,2.91 7.57,6.96 10.13,12.16 2.56,5.2 3.82,10.93 3.82,17.18 0,10.69 -3.41,19.77 -10.25,27.17 -6.81,7.43 -19.18,11.13 -37.04,11.13l-32.37 0 0 51.45 -16.74 0zm16.74 -66.26l32.6 0c10.81,0 18.44,-2 23,-6.02 4.52,-4.02 6.78,-9.66 6.78,-16.98 0,-5.26 -1.32,-9.78 -4,-13.54 -2.67,-3.76 -6.2,-6.26 -10.54,-7.46 -2.82,-0.73 -8.02,-1.11 -15.56,-1.11l-32.28 0 0 45.11z"/>
   <path id="5" class="fil2" d="M760.76 734.35l16.04 2.11c-2.5,9.31 -7.17,16.56 -13.98,21.7 -6.81,5.14 -15.51,7.72 -26.11,7.72 -13.33,0 -23.91,-4.11 -31.72,-12.33 -7.81,-8.19 -11.72,-19.74 -11.72,-34.57 0,-15.33 3.94,-27.25 11.83,-35.71 7.9,-8.49 18.15,-12.72 30.75,-12.72 12.19,0 22.14,4.14 29.87,12.45 7.72,8.31 11.6,20 11.6,35.07 0,0.91 -0.03,2.29 -0.09,4.11l-68.11 0c0.59,10.02 3.41,17.71 8.52,23.03 5.08,5.31 11.45,7.99 19.06,7.99 5.67,0 10.51,-1.5 14.51,-4.5 4.02,-2.99 7.2,-7.78 9.54,-14.36zm-50.75 -24.85l50.93 0c-0.67,-7.7 -2.64,-13.45 -5.84,-17.3 -4.91,-5.96 -11.31,-8.96 -19.15,-8.96 -7.11,0 -13.07,2.38 -17.91,7.14 -4.82,4.76 -7.49,11.13 -8.02,19.12z"/>
   <path id="6" class="fil2" d="M796.21 763.95l0 -91.45 13.92 0 0 14.01c3.56,-6.49 6.84,-10.78 9.87,-12.83 3.02,-2.09 6.34,-3.11 9.95,-3.11 5.23,0 10.54,1.65 15.95,4.91l-5.52 14.3c-3.76,-2.11 -7.52,-3.17 -11.28,-3.17 -3.38,0 -6.4,1.03 -9.07,3.06 -2.67,2.03 -4.58,4.85 -5.73,8.46 -1.73,5.49 -2.58,11.52 -2.58,18.06l0 47.78 -15.51 0z"/>
   <path id="7" class="fil2" d="M858.77 763.95l0 -79.47 -13.74 0 0 -11.98 13.74 0 0 -9.69c0,-6.14 0.53,-10.69 1.61,-13.66 1.5,-3.99 4.08,-7.25 7.84,-9.75 3.73,-2.5 8.99,-3.73 15.74,-3.73 4.38,0 9.19,0.53 14.48,1.56l-2.32 13.57c-3.23,-0.56 -6.26,-0.85 -9.13,-0.85 -4.7,0 -8.02,1 -9.99,2.99 -1.94,2 -2.91,5.73 -2.91,11.19l0 8.37 17.8 0 0 11.98 -17.62 0 0 79.47 -15.51 0z"/>
   <path id="8" class="fil2" d="M898.21 718.22c0,-16.89 4.7,-29.4 14.13,-37.53 7.84,-6.76 17.44,-10.13 28.75,-10.13 12.54,0 22.82,4.11 30.81,12.33 7.96,8.2 11.95,19.56 11.95,34.04 0,11.75 -1.76,20.97 -5.28,27.7 -3.52,6.72 -8.67,11.95 -15.42,15.68 -6.72,3.73 -14.09,5.58 -22.06,5.58 -12.8,0 -23.14,-4.08 -31.04,-12.28 -7.9,-8.19 -11.83,-20 -11.83,-35.39zm15.86 0.03c0,11.69 2.56,20.44 7.67,26.22 5.14,5.81 11.57,8.72 19.35,8.72 7.7,0 14.1,-2.91 19.24,-8.75 5.11,-5.85 7.67,-14.74 7.67,-26.7 0,-11.28 -2.58,-19.82 -7.72,-25.61 -5.14,-5.81 -11.54,-8.72 -19.18,-8.72 -7.78,0 -14.21,2.88 -19.35,8.66 -5.11,5.79 -7.67,14.51 -7.67,26.17z"/>
   <path id="9" class="fil2" d="M1001.85 763.95l0 -91.45 13.92 0 0 14.01c3.56,-6.49 6.84,-10.78 9.87,-12.83 3.02,-2.09 6.34,-3.11 9.95,-3.11 5.23,0 10.54,1.65 15.95,4.91l-5.52 14.3c-3.76,-2.11 -7.52,-3.17 -11.28,-3.17 -3.38,0 -6.4,1.03 -9.07,3.06 -2.67,2.03 -4.58,4.85 -5.73,8.46 -1.73,5.49 -2.58,11.52 -2.58,18.06l0 47.78 -15.51 0z"/>
   <path id="10" class="fil2" d="M1060.7 763.95l0 -91.45 13.92 0 0 12.92c2.85,-4.46 6.67,-8.08 11.43,-10.78 4.76,-2.73 10.16,-4.08 16.24,-4.08 6.76,0 12.31,1.41 16.62,4.2 4.32,2.82 7.37,6.72 9.13,11.78 7.28,-10.66 16.71,-15.98 28.34,-15.98 9.1,0 16.12,2.5 21,7.52 4.91,5.02 7.37,12.74 7.37,23.17l0 62.7 -15.51 0 0 -57.56c0,-6.17 -0.53,-10.63 -1.53,-13.36 -1,-2.73 -2.82,-4.91 -5.49,-6.58 -2.64,-1.67 -5.76,-2.5 -9.31,-2.5 -6.46,0 -11.8,2.14 -16.06,6.4 -4.26,4.29 -6.37,11.13 -6.37,20.53l0 53.07 -15.51 0 0 -59.35c0,-6.87 -1.26,-12.04 -3.79,-15.48 -2.52,-3.44 -6.67,-5.17 -12.39,-5.17 -4.35,0 -8.37,1.15 -12.07,3.44 -3.7,2.29 -6.37,5.64 -8.05,10.07 -1.64,4.41 -2.46,10.78 -2.46,19.09l0 47.4 -15.51 0z"/>
   <path id="11" class="fil2" d="M1267.22 752.5c-5.76,4.9 -11.31,8.34 -16.62,10.37 -5.31,2.03 -11.02,3.02 -17.12,3.02 -10.04,0 -17.77,-2.44 -23.17,-7.34 -5.4,-4.87 -8.11,-11.13 -8.11,-18.74 0,-4.46 1.03,-8.55 3.06,-12.25 2.06,-3.7 4.73,-6.63 8.02,-8.87 3.32,-2.23 7.02,-3.94 11.16,-5.08 3.06,-0.79 7.67,-1.56 13.8,-2.32 12.51,-1.47 21.76,-3.26 27.67,-5.31 0.06,-2.11 0.09,-3.47 0.09,-4.02 0,-6.29 -1.47,-10.72 -4.41,-13.31 -3.96,-3.49 -9.87,-5.22 -17.68,-5.22 -7.31,0 -12.72,1.29 -16.18,3.85 -3.5,2.56 -6.05,7.08 -7.72,13.6l-15.15 -2.11c1.38,-6.49 3.64,-11.75 6.81,-15.74 3.17,-3.99 7.76,-7.05 13.74,-9.22 5.96,-2.15 12.93,-3.23 20.8,-3.23 7.81,0 14.19,0.91 19.09,2.76 4.87,1.85 8.48,4.14 10.78,6.93 2.29,2.79 3.91,6.31 4.85,10.57 0.5,2.65 0.76,7.4 0.76,14.24l0 20.56c0,14.36 0.32,23.44 0.97,27.28 0.62,3.85 1.91,7.52 3.79,11.04l-16.21 0c-1.56,-3.26 -2.56,-7.08 -3,-11.45zm-1.23 -34.36c-5.64,2.29 -14.1,4.23 -25.37,5.81 -6.41,0.91 -10.93,1.94 -13.57,3.08 -2.64,1.15 -4.67,2.82 -6.11,4.99 -1.44,2.2 -2.17,4.64 -2.17,7.34 0,4.08 1.56,7.52 4.7,10.25 3.14,2.73 7.72,4.11 13.74,4.11 5.96,0 11.28,-1.29 15.95,-3.91 4.64,-2.59 8.07,-6.14 10.25,-10.63 1.67,-3.5 2.5,-8.64 2.5,-15.42l0.09 -5.64z"/>
   <path id="12" class="fil2" d="M1305.49 763.95l0 -91.45 13.92 0 0 12.98c6.7,-9.96 16.39,-14.92 29.05,-14.92 5.52,0 10.57,1 15.18,2.97 4.61,1.96 8.08,4.58 10.37,7.78 2.29,3.2 3.91,7.02 4.82,11.43 0.56,2.88 0.85,7.9 0.85,15.07l0 56.15 -15.51 0 0 -55.57c0,-6.31 -0.59,-11.04 -1.79,-14.15 -1.2,-3.11 -3.35,-5.61 -6.4,-7.49 -3.06,-1.85 -6.67,-2.79 -10.78,-2.79 -6.57,0 -12.24,2.09 -17.03,6.28 -4.79,4.17 -7.17,12.13 -7.17,23.82l0 49.9 -15.51 0z"/>
   <path id="13" class="fil2" d="M1463.23 730.47l15.15 2.11c-1.67,10.43 -5.9,18.56 -12.74,24.46 -6.84,5.9 -15.27,8.84 -25.23,8.84 -12.48,0 -22.53,-4.08 -30.1,-12.24 -7.61,-8.17 -11.4,-19.85 -11.4,-35.07 0,-9.87 1.65,-18.47 4.91,-25.87 3.26,-7.37 8.22,-12.92 14.92,-16.59 6.67,-3.7 13.92,-5.55 21.79,-5.55 9.9,0 18.03,2.5 24.31,7.52 6.31,5.02 10.37,12.16 12.13,21.38l-14.98 2.29c-1.44,-6.14 -3.96,-10.75 -7.64,-13.86 -3.64,-3.08 -8.05,-4.64 -13.22,-4.64 -7.81,0 -14.15,2.79 -19.06,8.37 -4.87,5.61 -7.31,14.42 -7.31,26.52 0,12.28 2.35,21.17 7.05,26.72 4.73,5.55 10.87,8.34 18.41,8.34 6.11,0 11.19,-1.85 15.24,-5.58 4.08,-3.7 6.67,-9.43 7.75,-17.15z"/>
   <path id="14" class="fil2" d="M1553.98 734.35l16.04 2.11c-2.5,9.31 -7.17,16.56 -13.98,21.7 -6.81,5.14 -15.51,7.72 -26.11,7.72 -13.33,0 -23.91,-4.11 -31.72,-12.33 -7.81,-8.19 -11.72,-19.74 -11.72,-34.57 0,-15.33 3.94,-27.25 11.83,-35.71 7.9,-8.49 18.15,-12.72 30.75,-12.72 12.19,0 22.14,4.14 29.87,12.45 7.72,8.31 11.6,20 11.6,35.07 0,0.91 -0.03,2.29 -0.09,4.11l-68.11 0c0.59,10.02 3.41,17.71 8.52,23.03 5.08,5.31 11.45,7.99 19.06,7.99 5.67,0 10.51,-1.5 14.51,-4.5 4.02,-2.99 7.2,-7.78 9.54,-14.36zm-50.75 -24.85l50.93 0c-0.67,-7.7 -2.64,-13.45 -5.84,-17.3 -4.91,-5.96 -11.31,-8.96 -19.15,-8.96 -7.11,0 -13.07,2.38 -17.91,7.14 -4.82,4.76 -7.49,11.13 -8.02,19.12z"/>
   <path id="15" class="fil2" d="M1593.66 763.95l0 -17.62 17.62 0 0 17.62c0,6.49 -1.15,11.75 -3.46,15.74 -2.29,4 -5.96,7.11 -10.98,9.28l-4.23 -6.7c3.29,-1.44 5.7,-3.56 7.22,-6.31 1.56,-2.79 2.44,-6.78 2.61,-12.01l-8.78 0z"/>
   <polygon id="16" class="fil2" points="1689.81,763.95 1689.81,637.78 1780.91,637.78 1780.91,652.58 1706.55,652.58 1706.55,691.35 1776.15,691.35 1776.15,706.15 1706.55,706.15 1706.55,749.15 1783.91,749.15 1783.91,763.95 "/>
   <path id="17" class="fil2" d="M1830.05 763.95l-34.51 -91.45 16.59 0 19.56 54.77c2.11,5.9 4.08,12.04 5.87,18.41 1.38,-4.81 3.29,-10.6 5.78,-17.39l20.33 -55.8 15.92 0 -34.63 91.45 -14.92 0z"/>
   <path id="18" class="fil2" d="M1955.54 734.35l16.04 2.11c-2.5,9.31 -7.17,16.56 -13.98,21.7 -6.81,5.14 -15.51,7.72 -26.11,7.72 -13.33,0 -23.91,-4.11 -31.72,-12.33 -7.81,-8.19 -11.72,-19.74 -11.72,-34.57 0,-15.33 3.94,-27.25 11.83,-35.71 7.9,-8.49 18.15,-12.72 30.75,-12.72 12.19,0 22.14,4.14 29.87,12.45 7.72,8.31 11.6,20 11.6,35.07 0,0.91 -0.03,2.29 -0.09,4.11l-68.11 0c0.59,10.02 3.41,17.71 8.52,23.03 5.08,5.31 11.45,7.99 19.06,7.99 5.67,0 10.51,-1.5 14.51,-4.5 4.02,-2.99 7.2,-7.78 9.54,-14.36zm-50.75 -24.85l50.93 0c-0.67,-7.7 -2.64,-13.45 -5.84,-17.3 -4.91,-5.96 -11.31,-8.96 -19.15,-8.96 -7.11,0 -13.07,2.38 -17.91,7.14 -4.82,4.76 -7.49,11.13 -8.02,19.12z"/>
   <path id="19" class="fil2" d="M1990.99 763.95l0 -91.45 13.92 0 0 14.01c3.56,-6.49 6.84,-10.78 9.87,-12.83 3.02,-2.09 6.34,-3.11 9.95,-3.11 5.23,0 10.54,1.65 15.95,4.91l-5.52 14.3c-3.76,-2.11 -7.52,-3.17 -11.28,-3.17 -3.38,0 -6.4,1.03 -9.07,3.06 -2.67,2.03 -4.58,4.85 -5.73,8.46 -1.73,5.49 -2.58,11.52 -2.58,18.06l0 47.78 -15.51 0z"/>
   <path id="20" class="fil2" d="M2049.14 799.1l-1.76 -14.33c3.41,0.91 6.35,1.38 8.87,1.38 3.46,0 6.23,-0.59 8.28,-1.74 2.08,-1.15 3.79,-2.76 5.11,-4.81 0.97,-1.56 2.56,-5.41 4.73,-11.57 0.29,-0.85 0.73,-2.11 1.38,-3.79l-34.71 -91.75 16.56 0 19.09 52.8c2.5,6.67 4.7,13.72 6.67,21.12 1.79,-6.96 3.91,-13.83 6.37,-20.59l19.5 -53.33 15.48 0 -34.57 93.04c-3.73,10.02 -6.64,16.89 -8.72,20.67 -2.76,5.08 -5.93,8.81 -9.48,11.19 -3.58,2.38 -7.84,3.55 -12.78,3.55 -3,0 -6.35,-0.61 -10.02,-1.85z"/>
   <path id="21" class="fil2" d="M2278.71 719.69l16.74 4.23c-3.5,13.72 -9.78,24.14 -18.85,31.34 -9.07,7.2 -20.18,10.81 -33.3,10.81 -13.57,0 -24.61,-2.76 -33.13,-8.31 -8.52,-5.52 -14.98,-13.54 -19.41,-24.02 -4.43,-10.52 -6.67,-21.76 -6.67,-33.8 0,-13.13 2.5,-24.58 7.52,-34.36 5.02,-9.78 12.16,-17.21 21.41,-22.29 9.25,-5.08 19.44,-7.61 30.54,-7.61 12.63,0 23.23,3.2 31.81,9.63 8.6,6.43 14.59,15.45 17.97,27.08l-16.39 3.87c-2.91,-9.16 -7.17,-15.86 -12.72,-20.03 -5.55,-4.2 -12.54,-6.28 -20.97,-6.28 -9.66,0 -17.77,2.32 -24.26,6.96 -6.49,4.64 -11.07,10.89 -13.69,18.7 -2.64,7.84 -3.96,15.92 -3.96,24.23 0,10.72 1.56,20.09 4.67,28.07 3.11,8.02 7.96,13.98 14.54,17.94 6.58,3.96 13.69,5.93 21.35,5.93 9.34,0 17.21,-2.7 23.67,-8.08 6.46,-5.4 10.84,-13.39 13.13,-24.02z"/>
   <polygon id="22" class="fil2" points="2313.81,763.95 2313.81,637.78 2329.31,637.78 2329.31,763.95 "/>
   <path id="23" class="fil2" d="M2353.31 655.4l0 -17.62 15.51 0 0 17.62 -15.51 0zm0 108.55l0 -91.45 15.51 0 0 91.45 -15.51 0z"/>
   <path id="24" class="fil2" d="M2452.2 730.47l15.15 2.11c-1.67,10.43 -5.9,18.56 -12.74,24.46 -6.84,5.9 -15.27,8.84 -25.23,8.84 -12.48,0 -22.53,-4.08 -30.1,-12.24 -7.61,-8.17 -11.4,-19.85 -11.4,-35.07 0,-9.87 1.65,-18.47 4.91,-25.87 3.26,-7.37 8.22,-12.92 14.92,-16.59 6.67,-3.7 13.92,-5.55 21.79,-5.55 9.9,0 18.03,2.5 24.31,7.52 6.31,5.02 10.37,12.16 12.13,21.38l-14.98 2.29c-1.44,-6.14 -3.96,-10.75 -7.64,-13.86 -3.64,-3.08 -8.05,-4.64 -13.22,-4.64 -7.81,0 -14.15,2.79 -19.06,8.37 -4.87,5.61 -7.31,14.42 -7.31,26.52 0,12.28 2.35,21.17 7.05,26.72 4.73,5.55 10.87,8.34 18.41,8.34 6.11,0 11.19,-1.85 15.24,-5.58 4.08,-3.7 6.67,-9.43 7.75,-17.15z"/>
   <polygon id="25" class="fil2" points="2480.63,763.95 2480.63,637.78 2496.13,637.78 2496.13,709.65 2532.78,672.5 2552.81,672.5 2517.93,706.47 2556.34,763.95 2537.25,763.95 2506.88,717.22 2496.13,727.68 2496.13,763.95 "/>
   <polygon id="26" class="fil2" points="2605.65,724.48 2605.65,711.96 2703.44,711.96 2703.44,724.48 "/>
   <polygon id="27" class="fil2" points="2795.43,763.95 2795.43,652.58 2753.84,652.58 2753.84,637.78 2853.76,637.78 2853.76,652.58 2812.17,652.58 2812.17,763.95 "/>
   <path id="28" class="fil2" d="M2843.71 718.22c0,-16.89 4.7,-29.4 14.13,-37.53 7.84,-6.76 17.44,-10.13 28.75,-10.13 12.54,0 22.82,4.11 30.81,12.33 7.96,8.2 11.95,19.56 11.95,34.04 0,11.75 -1.76,20.97 -5.28,27.7 -3.52,6.72 -8.67,11.95 -15.42,15.68 -6.72,3.73 -14.09,5.58 -22.06,5.58 -12.8,0 -23.14,-4.08 -31.04,-12.28 -7.9,-8.19 -11.83,-20 -11.83,-35.39zm15.86 0.03c0,11.69 2.56,20.44 7.67,26.22 5.14,5.81 11.57,8.72 19.35,8.72 7.7,0 14.1,-2.91 19.24,-8.75 5.11,-5.85 7.67,-14.74 7.67,-26.7 0,-11.28 -2.58,-19.82 -7.72,-25.61 -5.14,-5.81 -11.54,-8.72 -19.18,-8.72 -7.78,0 -14.21,2.88 -19.35,8.66 -5.11,5.79 -7.67,14.51 -7.67,26.17z"/>
   <path id="29" class="fil2" d="M2947.53 799.02l0 -126.52 14.1 0 0 12.01c3.32,-4.64 7.07,-8.14 11.28,-10.46 4.17,-2.32 9.25,-3.5 15.21,-3.5 7.81,0 14.69,2 20.65,6.02 5.96,4 10.46,9.67 13.51,16.95 3.02,7.31 4.55,15.3 4.55,24.02 0,9.31 -1.67,17.71 -5.02,25.2 -3.35,7.46 -8.22,13.19 -14.63,17.18 -6.37,3.96 -13.1,5.96 -20.15,5.96 -5.17,0 -9.81,-1.09 -13.89,-3.26 -4.11,-2.17 -7.46,-4.9 -10.1,-8.22l0 44.61 -15.51 0zm14.1 -80.24c0,11.72 2.38,20.38 7.11,25.99 4.76,5.61 10.51,8.43 17.27,8.43 6.87,0 12.75,-2.91 17.62,-8.72 4.91,-5.81 7.34,-14.8 7.34,-26.99 0,-11.63 -2.38,-20.32 -7.17,-26.11 -4.79,-5.78 -10.48,-8.66 -17.12,-8.66 -6.58,0 -12.39,3.08 -17.44,9.22 -5.08,6.17 -7.61,15.09 -7.61,26.84z"/>
   <path id="30" class="fil2" d="M3118.19 763.95l-33.22 -126.17 17.33 0 18.91 82.73c2.06,8.67 3.88,17.27 5.43,25.79 3.32,-13.45 5.26,-21.2 5.81,-23.26l23.85 -85.26 20.11 0 18.09 63.88c4.43,15.86 7.72,30.75 9.84,44.64 1.67,-7.96 3.81,-17.09 6.43,-27.4l19.71 -81.12 16.77 0 -34.54 126.17 -16.24 0 -26.46 -96.12c-2.23,-8.05 -3.58,-12.98 -4.08,-14.8 -1.44,5.76 -2.73,10.69 -3.85,14.77l-26.46 96.15 -17.44 0z"/>
   <path id="31" class="fil2" d="M3320.01 734.35l16.04 2.11c-2.5,9.31 -7.17,16.56 -13.98,21.7 -6.81,5.14 -15.51,7.72 -26.11,7.72 -13.33,0 -23.91,-4.11 -31.72,-12.33 -7.81,-8.19 -11.72,-19.74 -11.72,-34.57 0,-15.33 3.94,-27.25 11.83,-35.71 7.9,-8.49 18.15,-12.72 30.75,-12.72 12.19,0 22.14,4.14 29.87,12.45 7.72,8.31 11.6,20 11.6,35.07 0,0.91 -0.03,2.29 -0.09,4.11l-68.11 0c0.59,10.02 3.41,17.71 8.52,23.03 5.08,5.31 11.45,7.99 19.06,7.99 5.67,0 10.51,-1.5 14.51,-4.5 4.02,-2.99 7.2,-7.78 9.54,-14.36zm-50.75 -24.85l50.93 0c-0.67,-7.7 -2.64,-13.45 -5.84,-17.3 -4.91,-5.96 -11.31,-8.96 -19.15,-8.96 -7.11,0 -13.07,2.38 -17.91,7.14 -4.82,4.76 -7.49,11.13 -8.02,19.12z"/>
   <path id="32" class="fil2" d="M3369.91 763.95l-14.45 0 0 -126.17 15.51 0 0 45.02c6.55,-8.17 14.89,-12.25 25.05,-12.25 5.61,0 10.96,1.12 15.98,3.38 5.02,2.26 9.13,5.46 12.39,9.55 3.23,4.11 5.79,9.04 7.61,14.83 1.85,5.76 2.76,11.95 2.76,18.53 0,15.62 -3.87,27.72 -11.6,36.24 -7.76,8.55 -17.04,12.8 -27.87,12.8 -10.78,0 -19.24,-4.49 -25.38,-13.45l0 11.51zm-0.17 -46.4c0,10.93 1.5,18.82 4.46,23.7 4.87,7.96 11.45,11.95 19.76,11.95 6.78,0 12.63,-2.94 17.53,-8.81 4.94,-5.87 7.4,-14.63 7.4,-26.26 0,-11.93 -2.35,-20.7 -7.08,-26.37 -4.73,-5.67 -10.45,-8.52 -17.15,-8.52 -6.78,0 -12.63,2.94 -17.53,8.81 -4.94,5.87 -7.4,14.36 -7.4,25.49z"/>
   <polygon id="33" class="fil2" points="3505.24,763.95 3505.24,637.78 3521.98,637.78 3521.98,689.76 3587.18,689.76 3587.18,637.78 3603.92,637.78 3603.92,763.95 3587.18,763.95 3587.18,704.57 3521.98,704.57 3521.98,763.95 "/>
   <path id="34" class="fil2" d="M3624.04 718.22c0,-16.89 4.7,-29.4 14.13,-37.53 7.84,-6.76 17.44,-10.13 28.75,-10.13 12.54,0 22.82,4.11 30.81,12.33 7.96,8.2 11.95,19.56 11.95,34.04 0,11.75 -1.76,20.97 -5.28,27.7 -3.52,6.72 -8.67,11.95 -15.42,15.68 -6.72,3.73 -14.09,5.58 -22.06,5.58 -12.8,0 -23.14,-4.08 -31.04,-12.28 -7.9,-8.19 -11.83,-20 -11.83,-35.39zm15.86 0.03c0,11.69 2.56,20.44 7.67,26.22 5.14,5.81 11.57,8.72 19.35,8.72 7.7,0 14.1,-2.91 19.24,-8.75 5.11,-5.85 7.67,-14.74 7.67,-26.7 0,-11.28 -2.58,-19.82 -7.72,-25.61 -5.14,-5.81 -11.54,-8.72 -19.18,-8.72 -7.78,0 -14.21,2.88 -19.35,8.66 -5.11,5.79 -7.67,14.51 -7.67,26.17z"/>
   <path id="35" class="fil2" d="M3721.69 736.64l15.33 -2.47c0.85,6.14 3.26,10.84 7.2,14.13 3.94,3.26 9.46,4.91 16.5,4.91 7.14,0 12.43,-1.44 15.89,-4.35 3.44,-2.88 5.17,-6.29 5.17,-10.19 0,-3.49 -1.56,-6.26 -4.64,-8.25 -2.17,-1.38 -7.46,-3.11 -15.86,-5.26 -11.33,-2.85 -19.18,-5.31 -23.58,-7.4 -4.37,-2.11 -7.69,-4.99 -9.96,-8.69 -2.26,-3.67 -3.41,-7.75 -3.41,-12.22 0,-4.08 0.94,-7.84 2.79,-11.31 1.88,-3.47 4.4,-6.35 7.61,-8.63 2.41,-1.76 5.7,-3.26 9.84,-4.5 4.17,-1.23 8.6,-1.85 13.36,-1.85 7.17,0 13.45,1.03 18.85,3.11 5.43,2.06 9.43,4.87 12.01,8.4 2.56,3.56 4.35,8.28 5.31,14.22l-15.15 2.11c-0.68,-4.76 -2.67,-8.49 -5.96,-11.16 -3.29,-2.67 -7.93,-3.99 -13.95,-3.99 -7.08,0 -12.16,1.17 -15.18,3.52 -3.03,2.35 -4.56,5.11 -4.56,8.25 0,2 0.62,3.82 1.88,5.43 1.26,1.65 3.23,3.03 5.93,4.11 1.56,0.59 6.08,1.91 13.65,3.96 10.93,2.91 18.56,5.31 22.91,7.17 4.35,1.85 7.75,4.58 10.22,8.11 2.5,3.55 3.73,7.96 3.73,13.24 0,5.14 -1.5,9.98 -4.52,14.54 -3.02,4.56 -7.37,8.08 -13.04,10.57 -5.7,2.5 -12.13,3.73 -19.3,3.73 -11.86,0 -20.94,-2.46 -27.17,-7.37 -6.22,-4.93 -10.19,-12.22 -11.93,-21.88z"/>
   <path id="36" class="fil2" d="M3849.62 750.11l2.11 13.69c-4.35,0.91 -8.25,1.38 -11.66,1.38 -5.61,0 -9.95,-0.88 -13.07,-2.67 -3.08,-1.79 -5.26,-4.11 -6.52,-7.02 -1.26,-2.91 -1.88,-9.02 -1.88,-18.33l0 -52.69 -11.45 0 0 -11.98 11.45 0 0 -22.61 15.51 -9.31 0 31.93 15.51 0 0 11.98 -15.51 0 0 53.57c0,4.43 0.26,7.28 0.82,8.54 0.53,1.26 1.41,2.26 2.64,3.03 1.24,0.73 3,1.11 5.29,1.11 1.7,0 3.96,-0.2 6.76,-0.62z"/>
   <path id="37" class="fil2" d="M3864.92 655.4l0 -17.62 15.51 0 0 17.62 -15.51 0zm0 108.55l0 -91.45 15.51 0 0 91.45 -15.51 0z"/>
   <path id="38" class="fil2" d="M3904.07 763.95l0 -91.45 13.92 0 0 12.98c6.7,-9.96 16.39,-14.92 29.05,-14.92 5.52,0 10.57,1 15.18,2.97 4.61,1.96 8.08,4.58 10.37,7.78 2.29,3.2 3.91,7.02 4.82,11.43 0.56,2.88 0.85,7.9 0.85,15.07l0 56.15 -15.51 0 0 -55.57c0,-6.31 -0.59,-11.04 -1.79,-14.15 -1.2,-3.11 -3.35,-5.61 -6.4,-7.49 -3.06,-1.85 -6.67,-2.79 -10.78,-2.79 -6.57,0 -12.24,2.09 -17.03,6.28 -4.79,4.17 -7.17,12.13 -7.17,23.82l0 49.9 -15.51 0z"/>
   <path id="39" class="fil2" d="M3999.22 771.53l14.98 2.11c0.62,4.64 2.38,8.02 5.26,10.16 3.85,2.85 9.11,4.29 15.77,4.29 7.17,0 12.72,-1.44 16.62,-4.29 3.91,-2.85 6.55,-6.87 7.93,-12.01 0.8,-3.14 1.18,-9.75 1.12,-19.83 -6.78,7.99 -15.21,11.98 -25.31,11.98 -12.57,0 -22.32,-4.52 -29.19,-13.6 -6.9,-9.04 -10.34,-19.91 -10.34,-32.57 0,-8.72 1.59,-16.77 4.73,-24.14 3.14,-7.37 7.72,-13.04 13.71,-17.07 5.99,-4.02 13.04,-6.02 21.15,-6.02 10.78,0 19.68,4.41 26.67,13.22l0 -11.28 14.27 0 0 78.97c0,14.24 -1.44,24.31 -4.35,30.25 -2.88,5.93 -7.49,10.63 -13.74,14.07 -6.28,3.44 -14.01,5.17 -23.17,5.17 -10.89,0 -19.68,-2.44 -26.37,-7.34 -6.73,-4.87 -9.96,-12.24 -9.72,-22.08zm12.69 -54.86c0,11.95 2.38,20.68 7.14,26.17 4.79,5.49 10.75,8.26 17.91,8.26 7.14,0 13.1,-2.73 17.94,-8.2 4.81,-5.46 7.22,-14.04 7.22,-25.72 0,-11.16 -2.5,-19.59 -7.46,-25.26 -4.96,-5.67 -10.95,-8.48 -17.94,-8.48 -6.9,0 -12.74,2.79 -17.59,8.37 -4.81,5.58 -7.22,13.86 -7.22,24.87z"/>
   <g>
    <polygon class="fil3" points="517.93,529.25 559.27,499.22 600.61,529.25 584.81,480.66 626.15,450.62 575.06,450.62 559.27,402.03 543.48,450.62 492.38,450.62 533.72,480.66 "/>
    <polygon class="fil4" points="547.96,390.72 563.75,439.31 614.85,439.31 573.51,469.35 589.3,517.94 547.96,487.91 506.62,517.94 522.41,469.35 481.07,439.31 532.17,439.31 "/>
   </g>
  </g>
 </g>
</svg>
